<?xml version="1.0" encoding="UTF-8" standalone="no"?>
<!-- Created with Inkscape (http://www.inkscape.org/) -->
<svg
   xmlns:dc="http://purl.org/dc/elements/1.1/"
   xmlns:cc="http://creativecommons.org/ns#"
   xmlns:rdf="http://www.w3.org/1999/02/22-rdf-syntax-ns#"
   xmlns:svg="http://www.w3.org/2000/svg"
   xmlns="http://www.w3.org/2000/svg"
   xmlns:sodipodi="http://sodipodi.sourceforge.net/DTD/sodipodi-0.dtd"
   xmlns:inkscape="http://www.inkscape.org/namespaces/inkscape"
   width="45.827774"
   height="60.537926"
   id="svg2"
   sodipodi:version="0.32"
   inkscape:version="0.46"
   sodipodi:docname="jeex.svg"
   inkscape:output_extension="org.inkscape.output.svg.inkscape"
   version="1.0">
  <defs
     id="defs4">
    <inkscape:perspective
       sodipodi:type="inkscape:persp3d"
       inkscape:vp_x="0 : 526.18109 : 1"
       inkscape:vp_y="0 : 1000 : 0"
       inkscape:vp_z="744.09448 : 526.18109 : 1"
       inkscape:persp3d-origin="372.04724 : 350.78739 : 1"
       id="perspective10" />
    <inkscape:perspective
       id="perspective2464"
       inkscape:persp3d-origin="372.04724 : 350.78739 : 1"
       inkscape:vp_z="744.09448 : 526.18109 : 1"
       inkscape:vp_y="0 : 1000 : 0"
       inkscape:vp_x="0 : 526.18109 : 1"
       sodipodi:type="inkscape:persp3d" />
    <inkscape:perspective
       id="perspective3281"
       inkscape:persp3d-origin="372.04724 : 350.78739 : 1"
       inkscape:vp_z="744.09448 : 526.18109 : 1"
       inkscape:vp_y="0 : 1000 : 0"
       inkscape:vp_x="0 : 526.18109 : 1"
       sodipodi:type="inkscape:persp3d" />
  </defs>
  <sodipodi:namedview
     id="base"
     pagecolor="#ffffff"
     bordercolor="#666666"
     borderopacity="1.0"
     inkscape:pageopacity="0.0"
     inkscape:pageshadow="2"
     inkscape:zoom="1"
     inkscape:cx="113.67223"
     inkscape:cy="77.50303"
     inkscape:document-units="px"
     inkscape:current-layer="layer1"
     showgrid="false"
     inkscape:window-width="640"
     inkscape:window-height="671"
     inkscape:window-x="0"
     inkscape:window-y="22"
     borderlayer="true" />
  <metadata
     id="metadata7">
    <rdf:RDF>
      <cc:Work
         rdf:about="">
        <dc:format>image/svg+xml</dc:format>
        <dc:type
           rdf:resource="http://purl.org/dc/dcmitype/StillImage" />
      </cc:Work>
    </rdf:RDF>
  </metadata>
  <g
     inkscape:label="Livello 1"
     inkscape:groupmode="layer"
     id="layer1"
     transform="translate(-15.642852,-66.147892)">
    <g
       id="g3321"
       transform="matrix(6.5935192e-2,0,0,6.5935192e-2,13.669506,63.293508)">
      <path
         style="fill:#fcfbfb"
         d="M 29.92857,502.36219 L 29.92857,43.290745 L 377.44993,43.290745 L 724.97129,43.290745 L 724.97129,502.36219 L 724.97129,961.43363 L 377.44993,961.43363 L 29.92857,961.43363 L 29.92857,502.36219 z"
         id="path3337" />
      <path
         style="fill:#d0a1a1"
         d="M 81.524637,912.26991 C 69.471901,899.33281 73.050345,895.60501 121.45683,870.67123 C 148.57485,856.70295 154.08824,853.54552 163.99853,846.30823 C 167.76831,843.55523 173.15991,841.30278 175.97987,841.30278 C 178.79982,841.30278 183.79835,837.88134 187.08771,833.69961 C 192.81088,826.42377 193.03532,823.31439 192.30076,761.47809 L 191.53315,696.85974 L 151.48954,697.76839 C 129.46555,698.26816 104.36679,699.89491 95.714506,701.38341 C 72.785528,705.32799 72.54196,704.69968 73.484086,644.03649 L 74.262571,593.91021 L 85.703603,590.01114 C 91.996171,587.86663 117.48244,584.614 142.33976,582.78306 C 176.31253,580.28071 188.20866,578.40552 190.24832,575.23124 C 191.7407,572.90868 192.64031,553.25439 192.24745,531.55507 L 191.53315,492.10175 L 174.3716,484.45657 C 164.93275,480.2517 156.4186,475.68653 155.45125,474.31175 C 154.48392,472.93696 151.11459,470.31963 147.96387,468.49547 C 144.81315,466.67131 138.86727,462.79146 134.7508,459.87356 C 126.48067,454.01141 122.64736,453.70342 96.144789,456.77173 C 81.96647,458.4132 77.428156,457.99744 75.451714,454.87595 C 71.289152,448.30179 72.162418,350.10752 76.407764,347.37323 C 78.374192,346.10671 87.695627,344.42187 97.122065,343.6291 L 114.26104,342.18773 L 126.17326,323.95579 C 140.77849,301.60213 164.55,276.96409 180.80719,267.33032 L 192.96328,260.12679 L 192.96328,203.29405 C 192.96328,150.03253 193.31093,146.27525 198.49576,143.50042 C 201.53862,141.87193 218.82276,140.53952 236.90494,140.53952 C 262.97917,140.53952 270.71163,141.46951 274.27633,145.03422 C 277.89675,148.65463 278.77103,156.68897 278.77103,186.33916 C 278.77103,206.58479 279.73973,223.7481 280.92371,224.47984 C 282.10768,225.21157 288.22148,224.01742 294.50993,221.82616 C 305.52811,217.98679 369.92579,208.48065 384.60058,208.52732 C 388.53343,208.53983 402.04815,209.79129 414.63329,211.30833 C 427.21842,212.82539 438.15891,213.50824 438.94548,212.82579 C 439.73205,212.14334 440.78686,191.02896 441.28952,165.90495 L 442.2034,120.22493 L 449.34143,117.51107 C 458.58547,113.99648 516.29844,114.0616 521.89296,117.59293 C 525.41926,119.81877 526.34839,130.46162 527.10996,177.35334 L 528.0366,234.40561 L 542.84138,240.71858 C 561.9348,248.86026 587.79377,264.43519 607.87873,279.89075 C 618.22471,287.8521 626.72654,292.14852 632.19092,292.17701 C 643.7786,292.23741 646.6003,294.77835 648.50689,306.86957 C 649.94846,316.01176 659.255,339.00108 668.59383,356.48902 C 670.27397,359.6353 673.43293,369.28867 675.61368,377.94095 C 677.79445,386.59323 680.75153,398.17728 682.18495,403.68328 C 683.61839,409.18927 684.8219,426.02681 684.85943,441.1 C 684.92739,468.39101 679.73762,492.93011 668.57612,518.09361 C 666.13389,523.5996 662.2666,532.60942 659.98216,538.11541 C 657.6977,543.62141 654.00966,551.7702 651.78647,556.22382 C 648.88671,562.03283 647.74432,575.54429 647.74432,604.03252 C 647.74432,650.30218 649.23005,648.10767 616.28148,650.50494 C 585.50822,652.74398 576.53645,656.30231 558.96597,673.23713 C 550.37438,681.51789 539.88988,690.98283 535.66711,694.27035 L 527.98929,700.24769 L 527.08634,770.8832 C 526.3322,829.87436 525.47607,841.96519 521.89296,844.22719 C 516.2336,847.79994 458.53599,847.80521 449.14259,844.23383 L 441.80574,841.44436 L 441.76669,807.76554 C 441.74521,789.24219 440.94283,771.15747 439.98364,767.57728 L 438.23965,761.06782 L 422.1461,770.30248 C 398.1947,784.04602 312.26862,827.00149 308.72806,827.00149 C 307.03923,827.00149 304.11387,828.54509 302.22727,830.43168 C 300.34067,832.31828 294.61301,835.21429 289.49912,836.86726 C 280.75747,839.69283 280.09471,840.8633 278.42214,856.42966 C 277.44369,865.53603 275.73122,873.90229 274.61666,875.02134 C 273.5021,876.14041 253.78506,877.47678 230.80102,877.99103 C 200.53919,878.66814 187.40882,880.04887 183.20049,882.99648 C 180.00425,885.23523 174.61534,887.06691 171.22514,887.06691 C 167.83495,887.06691 163.45883,888.99759 161.50044,891.3573 C 159.54206,893.71701 155.84489,895.69136 153.28451,895.74474 C 150.72413,895.79811 143.48082,898.32866 137.18825,901.3682 C 130.89568,904.40774 124.13366,906.9383 122.16153,906.99167 C 120.1894,907.04504 113.77288,909.66295 107.9026,912.80924 C 94.242592,920.13055 88.743199,920.01812 81.524637,912.26991 z M 296.43903,769.79633 C 297.86641,769.79633 300.58885,768.49763 302.48887,766.91033 C 316.21535,755.44309 335.78249,741.19143 337.81579,741.18007 C 342.4364,741.15433 410.3429,676.46576 410.3429,672.08988 C 410.3429,668.85447 402.42711,669.06218 390.30221,672.61576 C 384.8066,674.22643 360.26773,676.63248 335.77142,677.96256 C 311.27508,679.29261 288.42877,681.88143 285.00183,683.71548 C 278.98654,686.93476 278.77103,688.68615 278.77103,734.35132 L 278.77103,781.65255 L 286.3074,775.72444 C 290.45241,772.46397 295.01164,769.79633 296.43903,769.79633 z M 341.6967,562.04977 C 367.65355,559.82346 400.47501,556.4235 414.63329,554.49425 L 440.37561,550.98657 L 440.37561,486.63076 L 440.37561,422.27496 L 430.3647,422.683 C 424.85871,422.90742 406.63254,424.83809 389.86211,426.97339 C 362.57298,430.44797 358.7427,431.65414 353.39381,438.45752 C 350.10669,442.63851 347.41722,447.31543 347.41722,448.85067 C 347.41722,457.16985 307.47177,485.51361 290.90631,488.94863 L 280.20115,491.16845 L 279.39359,526.63937 C 278.45902,567.68854 279.16312,571.04588 288.10162,568.16245 C 291.62207,567.02679 315.73986,564.27608 341.6967,562.04977 z M 192.47441,324.1031 C 192.9921,320.44912 192.6527,315.47125 191.72019,313.04117 C 190.34089,309.44676 188.96528,309.96971 184.34336,315.84553 C 176.54379,325.76107 176.88079,332.82767 185.09757,331.66069 C 189.30386,331.0633 191.85921,328.44534 192.47441,324.1031 z M 344.67109,319.56755 C 353.26061,317.35188 377.43935,314.60713 398.40166,313.46809 C 435.28709,311.46385 436.60018,311.17297 439.16034,304.43922 C 442.24702,296.3207 442.33663,273.05399 439.31088,265.35879 C 435.21187,254.93403 396.12859,245.89639 354.56787,245.76276 C 323.89266,245.66413 284.16728,250.86131 281.32671,255.34473 C 279.96926,257.48726 278.83891,273.7203 278.81482,291.41814 L 278.77103,323.59605 L 303.91241,323.59605 C 317.74018,323.59605 336.08159,321.78323 344.67109,319.56755 z"
         id="path3335" />
      <path
         style="fill:#9f9e9e"
         d="M 84.510707,906.37365 C 81.343769,898.01624 84.330276,894.57984 102.44288,885.74007 C 110.54084,881.78791 128.75049,872.0749 142.90877,864.15564 C 157.06704,856.23639 172.6149,847.92914 177.45956,845.69514 C 193.24091,838.41787 193.12532,839.06752 192.29897,762.29147 L 191.53315,691.13923 L 185.81264,691.87486 C 166.78652,694.32155 82.284814,700.04078 79.549878,699.06692 C 74.092365,697.12357 72.912369,687.35439 72.871498,643.77658 C 72.844232,614.70423 73.91166,600.78381 76.407764,597.65998 C 81.172886,591.69651 109.49871,586.56355 151.75462,584.00631 C 170.77811,582.85506 187.8324,580.99248 189.65304,579.86726 C 191.93401,578.45755 192.96328,563.76049 192.96328,532.59998 L 192.96328,487.37852 L 176.5168,479.74732 C 153.92641,469.26537 148.14804,465.72806 138.47162,456.45744 L 130.10891,448.44546 L 111.86686,451.80669 C 84.109678,456.92115 78.858977,456.34524 75.621905,447.83108 C 72.501321,439.62331 72.305991,366.18518 75.375151,355.05889 C 76.93414,349.40725 79.422685,347.75616 87.246137,347.1828 C 115.71286,345.09647 121.71026,343.32368 124.42084,336.19431 C 125.89074,332.32819 128.34227,327.59021 129.86869,325.66546 C 151.59384,298.27099 165.88809,283.25014 178.10192,274.98048 L 192.9005,264.96075 L 192.93189,208.67496 C 192.95829,161.34851 193.67873,151.67372 197.45797,147.89447 C 201.03309,144.31936 208.81605,143.39978 235.49941,143.39978 C 257.77764,143.39978 270.19908,144.55271 272.47846,146.83209 C 274.80475,149.15839 275.91077,162.55168 275.91077,188.3956 C 275.91077,218.08049 276.78049,226.86055 279.83719,228.03351 C 281.99672,228.86221 295.18966,226.73062 309.15483,223.29665 C 330.21408,218.11828 343.57378,216.99193 387.46083,216.69472 L 440.37561,216.33637 L 441.80574,169.74736 C 442.94718,132.56318 444.10195,122.61197 447.52625,120.4517 C 453.99313,116.37199 517.1492,116.91807 521.32091,121.08977 C 523.75802,123.52687 524.75322,140.84847 524.75322,180.82929 L 524.75322,237.1365 L 535.47919,241.93782 C 552.33506,249.48311 568.67475,258.3069 573.60283,262.52544 C 576.08642,264.65143 579.1217,266.39088 580.34792,266.39088 C 581.57411,266.39088 590.6651,272.82646 600.55006,280.69218 C 616.16252,293.11538 620.22835,294.99347 631.51064,294.99347 C 641.98654,294.99347 644.84974,296.09989 646.31419,300.71398 C 647.31279,303.86027 647.3722,308.82156 646.44619,311.73908 C 645.46907,314.81776 648.38874,324.35216 653.40411,334.46071 C 658.15695,344.04012 662.04561,353.36027 662.04561,355.17221 C 662.04561,356.98416 663.90555,361.88304 666.17883,366.05861 C 671.54965,375.92387 682.07711,426.12389 682.03364,441.66219 C 681.99691,454.79938 673.25988,493.4955 666.71395,509.51283 C 664.46379,515.01883 659.27508,527.65305 655.18354,537.58887 C 648.44325,553.95678 647.74432,559.2466 647.74432,593.89276 C 647.74432,646.2572 648.14195,645.52271 618.66539,647.60853 C 584.34232,650.03732 569.15538,654.81106 557.81117,666.73699 C 552.52661,672.2925 542.92673,681.83129 536.47808,687.93425 L 524.75322,699.03056 L 524.75322,768.16449 C 524.75322,818.12165 523.80116,838.25048 521.32091,840.73073 C 517.14925,844.90239 453.99324,845.44852 447.52625,841.36888 C 444.1295,839.22606 443.04437,830.44779 442.31652,799.22386 C 441.81089,777.53272 440.25656,758.61721 438.86242,757.18939 C 437.35057,755.64099 434.53365,756.08227 431.88201,758.28293 C 425.10852,763.90442 414.39975,769.54391 342.54909,805.3276 L 276.18539,838.37862 L 275.33302,856.28719 L 274.48064,874.19575 L 230.81079,874.48784 C 197.63935,874.70968 184.91843,875.84967 177.89602,879.22975 C 172.81131,881.67718 162.85907,885.95656 155.77993,888.73951 C 148.70079,891.52245 137.50914,896.14594 130.90959,899.01392 C 124.31005,901.88193 117.15514,904.22846 115.00979,904.22846 C 112.86444,904.22846 108.6107,906.11821 105.55703,908.42789 C 97.110996,914.81614 87.348818,913.8633 84.510707,906.37365 z M 299.53723,773.58411 C 307.78009,767.80167 320.95983,758.6336 328.82554,753.21063 C 372.54033,723.07161 420.51941,675.85944 414.029,669.36903 C 412.19145,667.53148 404.88962,667.64 392.90519,669.68297 C 382.83165,671.40021 353.54787,674.48431 327.83012,676.53655 C 294.07912,679.22983 280.36499,681.38223 278.53445,684.27343 C 275.61086,688.89101 274.94883,779.32199 277.81761,782.19077 C 281.165,785.53819 284.22545,784.32544 299.53723,773.58411 z M 311.66399,566.65212 C 321.10285,565.17846 337.93032,563.94689 349.05838,563.91526 C 360.18647,563.88362 380.78033,561.95927 394.82251,559.63891 C 408.86472,557.31859 424.85871,555.06613 430.3647,554.63346 L 440.37561,553.84683 L 441.1457,488.25894 C 441.56925,452.18559 440.79575,421.551 439.4268,420.18205 C 438.01504,418.77028 425.00693,419.61297 409.36987,422.12923 C 394.2075,424.56908 376.58107,426.56534 370.20006,426.56534 C 357.64247,426.56534 352.4183,430.61126 338.40766,451.18736 C 330.53726,462.74589 306.76511,478.84666 288.11292,485.25175 L 277.3409,488.95081 L 276.54059,526.72355 C 275.68192,567.25089 277.6044,574.33317 288.58212,571.08384 C 291.8383,570.12004 302.22514,568.12576 311.66399,566.65212 z M 192.96328,319.47446 C 192.96328,310.91502 191.80217,303.19424 190.38304,302.31717 C 186.80532,300.10602 175.80173,319.52489 175.80173,328.04993 C 175.80173,333.90659 177.19006,335.03708 184.38251,335.03708 L 192.96328,335.03708 L 192.96328,319.47446 z M 361.37811,319.03913 C 374.56259,316.82601 395.56286,315.01527 408.04534,315.01527 C 441.09093,315.01527 441.80574,314.3485 441.80574,283.52329 L 441.80574,257.95309 L 429.51023,252.35183 C 422.74769,249.27114 403.25415,244.80495 386.19128,242.42695 C 358.21175,238.52755 351.63041,238.5513 319.11462,242.66897 C 294.49515,245.78668 281.92755,248.63136 279.48609,251.63891 C 275.57332,256.4589 274.26133,320.99319 278.0001,324.73197 C 280.78935,327.52121 331.45564,324.06185 361.37811,319.03913 z"
         id="path3333" />
      <path
         style="fill:#ad5c5c"
         d="M 84.465334,906.37365 C 81.283955,898.13148 83.87633,895.50459 107.15554,883.38127 C 117.38096,878.05607 134.75703,868.75371 145.76902,862.70933 C 156.78102,856.66494 170.12766,849.43615 175.42823,846.64534 C 196.85782,835.36248 195.82354,839.70867 195.82354,760.94105 C 195.82354,721.94915 194.68636,689.3439 193.29647,688.48488 C 191.90659,687.62588 176.62468,688.88955 159.33669,691.29299 C 142.04869,693.69647 116.47822,695.28866 102.5134,694.83122 L 77.122829,693.99948 L 77.122829,645.38253 L 77.122829,596.76558 L 110.0158,592.11168 C 128.10693,589.55206 154.49281,586.33093 168.65109,584.9536 L 194.39341,582.44941 L 195.18003,535.82329 L 195.96665,489.19716 L 178.01848,480.604 C 153.42835,468.83083 148.03898,465.59668 139.15103,457.27977 C 128.82092,447.61333 123.27359,446.43527 101.43502,449.2703 C 85.92509,451.28375 82.250702,450.93374 79.268022,447.15869 C 74.904744,441.63624 74.225044,363.14567 78.471784,355.21057 C 80.420192,351.56995 86.191057,349.4023 97.778526,347.95858 C 116.25652,345.65636 124.31709,342.3122 124.31709,336.94833 C 124.31709,324.68938 179.77414,267.24331 192.24822,266.58078 C 194.97928,266.43572 195.82354,253.26862 195.82354,210.82015 C 195.82354,163.66106 196.51725,154.55571 200.40647,150.66649 C 204.18774,146.88523 210.81711,146.22408 238.30489,146.88687 L 271.62038,147.69017 L 272.32209,182.01327 C 273.141,222.06886 274.39007,229.20753 280.57981,229.20753 C 283.08784,229.20753 296.25626,226.46846 309.84296,223.12071 C 330.28184,218.08459 343.92696,216.97369 388.89096,216.68513 L 443.23587,216.33637 L 444.666,173.14394 C 445.68064,142.49962 447.23657,128.58118 450.02166,125.23461 C 453.21974,121.39186 459.60704,120.51772 484.48777,120.51772 C 504.42789,120.51772 516.21967,121.70905 518.46065,123.95003 C 520.8853,126.37468 521.89296,143.07243 521.89296,180.82623 L 521.89296,234.27013 L 528.32855,238.47722 C 531.86811,240.79112 537.64409,243.59503 541.16407,244.70813 C 546.79477,246.48869 559.04863,253.08744 577.65942,264.36099 C 580.80098,266.264 591.23646,273.89984 600.84939,281.32953 C 612.02896,289.97007 622.0475,295.29945 628.65058,296.11843 C 643.05212,297.90467 644.88406,299.62733 644.88406,311.38353 C 644.88406,317.06611 646.57325,323.7475 648.63778,326.23109 C 650.70234,328.71467 654.68228,336.53872 657.48207,343.61786 C 660.28189,350.69699 664.29109,360.35037 666.3914,365.06979 C 671.82755,377.2849 682.06742,427.33804 682.06742,441.69525 C 682.06742,461.9482 667.22291,512.89886 651.86195,545.36931 C 645.58242,558.64311 644.88406,563.82996 644.88406,597.19508 C 644.88406,622.39012 643.73836,635.80822 641.30874,639.06845 C 638.64192,642.64701 631.19229,644.34148 611.99109,645.737 C 583.14651,647.8334 570.74085,652.72444 557.43874,667.24486 C 552.60521,672.52103 542.64748,681.9864 535.31046,688.27897 L 521.97039,699.72 L 521.93169,767.07908 C 521.90378,815.61057 520.93361,835.39752 518.46065,837.87047 C 516.21707,840.11406 504.3861,841.30278 484.29973,841.30278 C 444.35065,841.30278 444.666,841.68405 444.666,793.38233 C 444.666,764.59443 443.87716,757.87305 440.3392,756.5154 C 437.95943,755.60221 434.08275,756.45648 431.72436,758.41379 C 425.12011,763.89481 414.05357,769.71638 342.46382,805.3693 C 271.81356,840.55434 274.13756,838.69852 272.39249,861.32459 L 271.62038,871.33549 L 228.71651,872.90961 C 196.98276,874.0739 183.57861,875.69015 177.23186,879.11751 C 172.51244,881.66612 162.85907,886.01213 155.77993,888.77537 C 148.70079,891.53858 137.50914,896.14594 130.90959,899.01392 C 124.31005,901.88193 117.15514,904.22846 115.00979,904.22846 C 112.86444,904.22846 108.6107,906.11821 105.55703,908.42789 C 97.117835,914.81096 87.355019,913.86012 84.465334,906.37365 z M 299.53723,773.58411 C 307.78009,767.80167 320.95983,758.61626 328.82554,753.17211 C 363.49382,729.17677 416.06341,679.78798 416.06341,671.21269 C 416.06341,665.82254 389.01009,665.1486 363.31465,669.89866 C 354.17584,671.58807 331.43887,673.92385 312.78804,675.08926 C 294.13721,676.2547 277.88817,678.19518 276.67904,679.40144 C 273.96697,682.10716 271.8653,767.54496 274.27468,777.1447 C 276.66021,786.6494 281.98186,785.89932 299.53723,773.58411 z M 312.28072,571.20505 C 329.24609,568.95351 353.42376,566.35125 366.0089,565.4223 C 401.03505,562.83685 437.10696,557.56368 441.14241,554.43891 C 443.92659,552.28304 444.59129,536.26751 444.00267,485.52253 L 443.23587,419.4147 L 431.79483,418.43248 C 425.50227,417.89224 406.83908,419.12232 390.32109,421.16598 C 357.51256,425.22514 354.97048,426.6926 338.40766,451.13385 C 330.82681,462.32072 307.13406,478.65877 289.54305,484.82995 C 272.86883,490.67949 273.05051,490.21873 273.05051,526.65699 C 273.05051,556.63985 275.72861,575.29877 280.03202,575.29877 C 280.80344,575.29877 295.31535,573.45659 312.28072,571.20505 z M 194.39341,319.54401 C 194.39341,309.53857 193.07646,302.18184 191.1717,301.54692 C 187.00125,300.15677 175.80173,319.12115 175.80173,327.57322 C 175.80173,336.14437 178.35392,338.3377 187.13572,337.31359 C 193.99267,336.51395 194.39341,335.53276 194.39341,319.54401 z M 371.72941,321.97042 C 390.60712,319.64421 414.41877,316.80427 424.64419,315.65943 L 443.23587,313.57791 L 443.23587,286.41292 L 443.23587,259.24794 L 430.3647,252.9847 C 422.73348,249.27128 404.68479,244.962 386.0307,242.3996 C 357.06358,238.42056 351.56202,238.48184 316.67402,243.17226 C 295.8324,245.97424 277.81873,249.22821 276.64366,250.40328 C 272.994,254.05294 272.13914,316.54869 275.64916,323.10723 C 278.64952,328.71346 280.60634,328.98637 308.12411,327.63641 C 324.22934,326.84632 352.85171,324.29662 371.72941,321.97042 z"
         id="path3331" />
      <path
         style="fill:#5f5e5e"
         d="M 88.120741,905.53523 C 87.189198,903.10767 86.907815,900.72625 87.495443,900.24315 C 89.91594,898.25324 123.98886,879.26971 138.61838,871.7603 C 147.27066,867.319 159.49826,860.6683 165.79083,856.98094 C 172.0834,853.29358 181.41499,848.32323 186.5277,845.93568 C 191.64041,843.54811 195.86499,839.9201 195.91565,837.87342 C 196.8684,799.38418 195.06498,690.66668 193.44693,689.04863 C 192.24082,687.84252 177.00024,688.83732 159.57898,691.25933 C 142.15773,693.68131 116.47822,695.28866 102.5134,694.83122 L 77.122829,693.99948 L 77.122829,645.38253 L 77.122829,596.76558 L 110.0158,592.11168 C 128.10693,589.55206 154.49281,586.33093 168.65109,584.9536 L 194.39341,582.44941 L 194.39341,532.92971 L 194.39341,483.41003 L 187.24277,479.72193 C 183.30991,477.69346 174.99989,473.59145 168.77605,470.60631 C 162.55221,467.6212 151.45421,460.45205 144.11382,454.67487 C 131.93776,445.09186 129.79526,444.37574 119.67666,446.50695 C 93.963279,451.92276 81.396443,451.90025 78.470531,446.43313 C 74.150474,438.36105 74.916835,360.07355 79.3756,353.97585 C 82.152756,350.17786 87.956059,348.72605 102.97273,348.07259 L 122.88696,347.20605 L 131.86121,332.31477 C 142.68049,314.36198 168.87501,286.32466 184.4713,276.00352 L 195.82354,268.49096 L 195.82354,211.87019 C 195.82354,163.74794 196.51142,154.56154 200.40647,150.66649 C 204.18774,146.88523 210.81711,146.22408 238.30489,146.88687 L 271.62038,147.69017 L 273.05051,189.64311 C 273.83708,212.71723 275.21248,232.32677 276.10694,233.21987 C 278.02299,235.13298 305.53262,230.44579 326.21667,224.68199 C 336.32623,221.86488 356.62994,220.62675 392.71767,220.62675 L 444.666,220.62675 L 444.666,176.92918 C 444.666,118.94813 443.56322,120.51772 484.29973,120.51772 C 504.3861,120.51772 516.21707,121.70643 518.46065,123.95003 C 520.8986,126.38798 521.89296,143.75439 521.89296,183.89503 L 521.89296,240.40772 L 541.24384,249.94081 C 561.46755,259.9039 587.4135,276.08196 605.40924,289.94981 C 613.44233,296.14025 618.63931,297.94634 626.99961,297.45304 C 642.48797,296.53916 645.78227,299.31972 643.517,311.39456 C 642.05175,319.20506 643.49375,325.29399 650.04377,338.95452 C 660.28369,360.31058 664.67622,372.51413 668.19462,389.38199 C 669.67123,396.46113 672.10957,407.74187 673.61315,414.45029 C 680.19286,443.80686 671.77306,493.43452 654.49839,527.11569 C 652.3568,531.29127 650.60458,536.50409 650.60458,538.69973 C 650.60458,540.89538 649.1318,544.1646 647.33173,545.96468 C 645.11529,548.18112 644.24176,562.90641 644.62544,591.58579 C 645.04226,622.74084 644.2063,635.21557 641.46271,638.78257 C 638.63114,642.4639 629.97963,644.33731 605.52328,646.56488 C 587.80773,648.17849 571.07522,650.73762 568.33992,652.25184 C 565.60466,653.76606 557.73449,660.88273 550.8507,668.06664 C 543.96689,675.25058 537.1906,681.12832 535.7923,681.12832 C 534.39398,681.12832 530.69941,685.31145 527.58213,690.42416 C 522.35644,698.99492 521.9135,704.97401 521.90366,767.07908 C 521.89594,815.64332 520.93526,835.39586 518.46065,837.87047 C 516.21707,840.11406 504.3861,841.30278 484.29973,841.30278 C 444.06631,841.30278 444.666,842.06976 444.666,790.61183 C 444.666,756.03814 444.20755,752.63478 439.55025,752.63478 C 433.95413,752.63478 420.95772,758.898 403.19225,770.15643 C 396.89969,774.14418 384.02852,780.89187 374.58967,785.15128 C 365.15082,789.41069 355.49745,794.07809 353.13774,795.52329 C 350.77802,796.96846 341.76821,801.49414 333.11593,805.58033 C 324.46365,809.66652 307.46124,817.74884 295.3328,823.54101 L 273.2811,834.07228 L 272.45074,852.70388 L 271.62038,871.33549 L 227.04856,871.34313 C 191.5711,871.34922 180.48266,872.31041 172.70366,876.054 C 167.32846,878.64079 155.85143,883.61724 147.19915,887.11279 C 138.54687,890.60834 128.05135,895.24582 123.87577,897.41827 C 119.70019,899.59072 113.8324,901.3682 110.83623,901.3682 C 107.84006,901.3682 102.89018,903.25795 99.83651,905.56763 C 92.685736,910.97621 90.206004,910.96935 88.120741,905.53523 z M 296.08765,781.41469 C 303.0815,776.79283 315.52321,768.1048 323.73591,762.10795 C 331.9486,756.11113 344.1762,747.41443 350.90837,742.78196 C 365.056,733.04678 424.64419,673.99189 424.64419,669.70605 C 424.64419,665.86081 384.47504,665.98697 363.31465,669.89866 C 354.17584,671.58807 331.43887,673.92385 312.78804,675.08926 C 294.13721,676.2547 277.88817,678.1955 276.67904,679.40216 C 273.80249,682.27283 271.95187,761.08092 274.38067,777.27733 C 275.44226,784.3565 277.80958,789.81813 279.81643,789.81813 C 281.77176,789.81813 289.09381,786.03659 296.08765,781.41469 z M 312.28072,571.20505 C 329.24609,568.95351 353.42376,566.35125 366.0089,565.4223 C 401.03505,562.83685 437.10696,557.56368 441.14241,554.43891 C 443.92659,552.28304 444.59129,536.26751 444.00267,485.52253 L 443.23587,419.4147 L 428.37039,418.55539 C 420.19437,418.08276 400.42395,419.64438 384.43611,422.0256 C 368.44827,424.40682 353.94307,426.08064 352.20237,425.74516 C 350.46165,425.40968 346.80504,429.52151 344.07658,434.88252 C 341.3481,440.24353 334.41446,449.44435 328.66849,455.32876 C 318.38586,465.85911 313.62895,468.76308 286.63674,480.98788 L 273.05051,487.14106 L 273.05051,523.88308 C 273.05051,556.25466 275.63643,575.29877 280.03202,575.29877 C 280.80344,575.29877 295.31535,573.45659 312.28072,571.20505 z M 532.08904,436.59504 C 534.27559,424.93977 531.54654,411.26342 527.52962,413.74601 C 523.93419,415.96811 523.89154,446.58715 527.48388,446.58715 C 528.98572,446.58715 531.05806,442.09071 532.08904,436.59504 z M 191.13961,337.10868 C 197.80531,332.2346 196.91792,296.87763 190.10302,295.80706 C 185.50021,295.08399 174.03705,311.08441 171.27572,322.08643 C 167.68883,336.37774 179.70822,345.4675 191.13961,337.10868 z M 371.72941,321.97042 C 390.60712,319.64421 414.41877,316.8059 424.64419,315.66305 L 443.23587,313.58514 L 444.80406,286.41269 L 446.37228,259.24024 L 439.08354,252.74366 C 435.07475,249.17054 428.57704,245.57245 424.64419,244.7479 C 420.71133,243.92335 412.38132,241.88291 406.13306,240.21359 C 387.52794,235.24294 342.00942,233.91252 320.24477,237.70324 C 309.23277,239.62119 295.08648,242.03383 288.80856,243.06468 C 275.01842,245.32905 273.88785,248.78325 273.38892,290.17605 C 272.91038,329.87732 272.45505,329.38627 308.12411,327.63641 C 324.22934,326.84632 352.85171,324.29662 371.72941,321.97042 z"
         id="path3329" />
      <path
         style="fill:#860404"
         d="M 88.120741,905.53523 C 87.189198,903.10767 86.907815,900.72625 87.495443,900.24315 C 89.91594,898.25324 123.98886,879.26971 138.61838,871.7603 C 147.27066,867.319 159.49826,860.64608 165.79083,856.93155 C 172.0834,853.21701 180.44965,848.74323 184.38251,846.9898 C 188.31536,845.23635 194.38288,840.34345 197.86587,836.11668 C 203.99457,828.6792 204.2019,826.28314 204.30145,761.74258 C 204.36424,721.03673 203.2507,692.898 201.44342,689.52106 C 198.96734,684.89445 195.33758,683.98858 179.27535,683.98858 C 168.71141,683.98858 151.05884,685.89692 140.04744,688.22931 C 129.03603,690.56171 111.33867,692.49239 100.71996,692.5197 L 81.413216,692.56935 L 81.413216,645.93162 L 81.413216,599.29385 L 115.02125,595.85221 C 184.16372,588.77167 197.14031,586.64353 200.82899,581.77986 C 203.31509,578.50186 204.40431,564.19545 204.40431,534.81991 C 204.40431,488.56633 203.83566,486.903 185.04929,478.20636 C 161.86471,467.47367 156.3041,464.26901 143.83294,454.45286 L 130.20589,443.72689 L 105.80955,443.72689 L 81.413216,443.72689 L 81.413216,401.27577 L 81.413216,358.82465 L 92.139184,355.75628 C 98.038466,354.06867 107.15603,351.80832 112.40045,350.73329 C 119.78362,349.21981 123.65699,345.82635 129.56199,335.69794 C 139.22194,319.12898 161.7577,293.61178 177.99114,280.8617 C 188.25044,272.80384 190.99375,271.76713 193.12858,275.14119 C 197.53268,282.10175 196.22941,292.56262 190.78059,293.98752 C 185.98952,295.24041 177.35568,306.95618 172.17214,319.23843 C 168.37078,328.24566 172.29138,337.41427 182.11708,342.49532 L 191.20981,347.19735 L 197.80706,339.5276 L 204.40431,331.85782 L 204.40431,242.22521 C 204.40431,163.13054 204.93623,152.38847 208.92863,150.85644 C 214.8074,148.60055 259.78717,148.60055 265.66593,150.85644 C 269.46293,152.31349 270.19025,158.433 270.19025,188.92325 C 270.19025,234.72757 270.97223,236.10815 294.50244,231.84588 C 303.9413,230.13612 318.2127,226.91237 326.21667,224.68199 C 336.24511,221.88748 356.40218,220.62675 391.0536,220.62675 C 418.70995,220.62675 443.37382,219.84549 445.86218,218.89061 C 449.69636,217.4193 450.38651,210.90576 450.38651,176.19104 C 450.38651,125.81973 450.12277,126.23823 481.86746,126.23823 C 494.23782,126.23823 507.63203,127.48263 511.63239,129.00357 L 518.9058,131.76891 L 519.6843,185.49367 L 520.46284,239.21843 L 541.07154,249.70643 C 562.73808,260.73278 587.84362,276.41759 605.12181,289.72216 C 610.78255,294.08105 620.64186,298.48337 627.03136,299.50509 C 637.67166,301.20655 638.80264,302.23748 640.48004,311.76434 C 641.48731,317.48521 645.94293,329.88862 650.38136,339.32747 C 660.39461,360.62166 664.74615,372.84932 668.19462,389.38199 C 669.67123,396.46113 672.10957,407.74187 673.61315,414.45029 C 680.19286,443.80686 671.77306,493.43452 654.49839,527.11569 C 652.3568,531.29127 650.60458,536.33839 650.60458,538.3315 C 650.60458,540.32462 648.35213,544.44202 645.59913,547.48127 C 641.42229,552.09244 640.42875,559.9423 639.59742,594.90075 C 638.99854,620.08458 637.39897,637.5393 635.58708,638.66213 C 633.92933,639.68942 619.91138,641.43615 604.43612,642.54378 L 576.29928,644.55763 L 558.39195,661.06158 C 548.54293,670.13875 535.65796,681.71828 529.75867,686.79386 L 519.03271,696.0222 L 519.03271,763.01277 L 519.03271,830.00333 L 511.69586,832.7928 C 507.66061,834.32701 494.23782,835.58226 481.86746,835.58226 C 450.45573,835.58226 450.38651,835.48121 450.38651,789.61383 L 450.38651,752.63478 L 442.41051,752.63478 C 434.1597,752.63478 422.90981,757.66091 403.19225,770.15643 C 396.89969,774.14418 384.02852,780.89187 374.58967,785.15128 C 365.15082,789.41069 355.49745,794.13698 353.13774,795.65412 C 350.77802,797.17126 346.27312,799.54441 343.12683,800.92775 C 333.17565,805.30309 274.52556,833.44168 273.47594,834.3442 C 272.92336,834.81935 271.63624,842.04965 270.61568,850.41153 L 268.76012,865.61498 L 231.95867,867.53372 C 192.58166,869.58673 184.92551,870.76802 171.51135,876.8602 C 166.79192,879.00356 155.85143,883.61724 147.19915,887.11279 C 138.54687,890.60834 128.05135,895.24582 123.87577,897.41827 C 119.70019,899.59072 113.8324,901.3682 110.83623,901.3682 C 107.84006,901.3682 102.89018,903.25795 99.83651,905.56763 C 92.685736,910.97621 90.206004,910.96935 88.120741,905.53523 z M 296.08765,781.41469 C 303.0815,776.79283 315.52321,768.1048 323.73591,762.10795 C 331.9486,756.11113 344.15026,747.3433 350.8507,742.62387 C 366.45084,731.63599 399.03161,700.87391 414.07697,682.927 C 425.18701,669.67433 425.49517,668.80267 420.39056,665.07006 C 413.8851,660.31319 369.13178,662.12445 336.38532,668.46993 C 324.81177,670.71263 307.20585,672.54755 297.26106,672.54755 C 269.9565,672.54755 270.19025,672.03207 270.19025,732.24523 C 270.19025,794.80617 271.64479,797.56777 296.08765,781.41469 z M 344.03291,572.36486 C 351.40027,570.82947 375.08913,568.45943 396.67478,567.09809 C 425.09774,565.30557 437.9161,563.316 443.15398,559.88401 L 450.38651,555.14508 L 450.38651,486.49404 L 450.38651,417.84299 L 443.56211,415.24836 C 433.32064,411.35455 366.68057,416.75077 355.85135,422.35078 C 350.92261,424.89953 345.20816,431.15374 343.0174,436.39697 C 338.33719,447.59834 312.52789,471.64473 302.47837,474.16699 C 298.59241,475.14231 290.05966,478.76929 283.51669,482.22694 L 271.62038,488.51359 L 270.8248,529.37092 C 270.24743,559.02175 271.01739,571.41889 273.63197,574.56926 C 276.60059,578.14621 281.93456,578.57994 303.93621,577.03337 C 318.62203,576.00108 336.66554,573.90025 344.03291,572.36486 z M 532.08904,436.59504 C 534.19542,425.36721 531.78514,412.26405 527.61348,412.26405 C 526.10029,412.26405 524.05246,415.49031 523.06278,419.43349 C 520.88836,428.0971 523.98713,446.58715 527.61348,446.58715 C 529.04407,446.58715 531.05806,442.09071 532.08904,436.59504 z M 344.55696,329.3488 C 367.36752,327.83511 389.24849,325.90855 393.18135,325.06756 C 397.1142,324.22657 409.71624,322.37822 421.18588,320.96012 C 432.65551,319.54202 443.91778,316.82314 446.21314,314.91816 C 449.27015,312.38107 450.38651,304.96924 450.38651,287.21003 C 450.38651,263.75798 450.09511,262.69329 441.47189,254.63799 C 436.56883,250.05786 429.16792,245.62159 425.0254,244.7796 C 420.88289,243.93762 412.38132,241.88291 406.13306,240.21359 C 387.60024,235.26226 342.01245,233.91451 320.24477,237.6744 C 309.23277,239.57649 294.62062,242.12691 287.77332,243.342 C 280.92602,244.5571 274.18837,247.34417 272.80076,249.5355 C 269.13275,255.32808 269.58027,322.83236 273.33317,329.84471 C 276.05704,334.93431 278.24989,335.47624 289.77966,333.90914 C 297.09662,332.91465 321.7464,330.86251 344.55696,329.3488 z"
         id="path3327" />
      <path
         style="fill:#650606"
         d="M 201.54406,866.47311 C 201.54406,865.13668 204.44007,862.73272 207.97964,861.13098 C 211.51921,859.52923 217.63301,856.36227 221.56586,854.09328 C 225.49872,851.82433 230.81136,849.94891 233.37174,849.92572 C 235.93211,849.90252 239.62928,847.95288 241.58767,845.59317 C 243.54606,843.23346 248.11663,841.30278 251.74449,841.30278 C 255.37236,841.30278 260.42451,839.21888 262.9715,836.67188 C 265.5185,834.12491 268.4239,832.8625 269.42796,833.86654 C 271.78914,836.22774 270.48526,862.18644 267.88487,864.58777 C 264.81488,867.42272 201.54406,869.22082 201.54406,866.47311 z M 200.972,832.14995 C 205.41691,827.70506 205.84644,697.74817 201.44342,689.52106 C 198.96734,684.89445 195.33758,683.98858 179.27535,683.98858 C 168.71141,683.98858 151.05884,685.89692 140.04744,688.22931 C 129.03603,690.56171 111.33867,692.49239 100.71996,692.5197 L 81.413216,692.56935 L 81.413216,645.93162 L 81.413216,599.29385 L 115.02125,595.85221 C 184.16372,588.77167 197.14031,586.64353 200.82899,581.77986 C 205.30341,575.88017 205.82425,497.48865 201.44342,489.30299 C 198.58789,483.96738 199.78375,483.77036 235.05145,483.7665 L 271.62038,483.76253 L 270.69661,526.8409 C 270.00318,559.17812 270.70312,571.04022 273.50379,574.41481 C 276.62749,578.17865 281.58057,578.60483 303.93621,577.03337 C 318.62203,576.00108 336.66554,573.90025 344.03291,572.36486 C 351.40027,570.82947 375.08913,568.45943 396.67478,567.09809 C 425.09774,565.30557 437.9161,563.316 443.15398,559.88401 L 450.38651,555.14508 L 450.38651,486.49404 L 450.38651,417.84299 L 443.56211,415.24836 C 435.20472,412.07087 366.97432,416.50124 359.06336,420.73505 C 351.19267,424.94732 350.27748,424.54972 350.27748,416.91804 C 350.27748,406.02926 338.88684,383.32485 328.51786,373.54565 C 323.25559,368.5827 312.36528,361.10576 304.31713,356.93024 C 290.98839,350.01505 286.77953,349.33837 257.09618,349.33837 C 239.1728,349.33837 218.79737,350.86578 211.81745,352.73264 C 201.67546,355.44519 198.22532,355.37884 194.63866,352.40217 C 190.62097,349.06779 190.8975,347.78986 197.27748,340.20768 L 204.40431,331.73792 L 204.40431,242.16525 C 204.40431,163.12526 204.93632,152.38844 208.92863,150.85644 C 214.8074,148.60055 259.78717,148.60055 265.66593,150.85644 C 269.45609,152.31086 270.19025,158.36766 270.19025,188.18184 C 270.19025,214.62187 271.32179,225.95924 274.59178,232.28271 C 278.55364,239.94411 278.55364,241.42203 274.59178,247.07838 C 271.1959,251.92668 270.19025,261.5877 270.19025,289.3627 C 270.19025,336.86316 270.48836,337.28828 300.58587,332.70671 C 312.97141,330.82135 331.47128,329.24753 341.6967,329.20935 C 351.92213,329.17117 369.94175,327.85216 381.74032,326.27821 C 393.53888,324.70425 411.93294,322.28366 422.61601,320.89911 C 450.31329,317.30949 451.09177,316.26965 449.92836,284.41691 C 449.39377,269.78074 449.12096,257.80667 449.32215,257.80789 C 460.56408,257.876 501.22932,292.38504 507.74593,307.38707 C 509.22671,310.79601 511.5761,315.51582 512.96679,317.87553 C 521.08125,331.64427 527.61348,349.86449 527.61348,358.72929 C 527.61348,364.33625 529.1263,375.47764 530.97531,383.48797 C 534.05787,396.84243 533.79212,399.02189 527.77574,409.7266 C 522.46236,419.1805 521.60857,423.66024 523.28694,433.27903 C 524.42684,439.81191 526.18844,468.96867 527.20157,498.0718 L 529.04361,550.98657 L 584.81864,551.75756 L 640.59368,552.52854 L 639.59742,594.66143 C 638.99797,620.01327 637.40068,637.53824 635.58708,638.66213 C 633.92933,639.68942 619.88727,641.43786 604.38252,642.54762 C 588.87778,643.65734 575.48287,645.71286 574.61604,647.11539 C 573.74922,648.51795 562.81902,649.66548 550.32673,649.66548 L 527.61348,649.66548 L 527.61348,667.71048 C 527.61348,679.14885 526.07598,687.78823 523.41405,691.30761 C 520.00754,695.8114 519.19746,709.42952 519.12366,763.43154 L 519.03271,830.00333 L 511.69586,832.7928 C 507.66061,834.32701 494.23782,835.58226 481.86746,835.58226 C 450.47735,835.58226 450.38651,835.45029 450.38651,789.85217 C 450.38651,766.46238 449.28231,752.74341 447.3478,752.09859 C 445.20301,751.38364 445.20301,748.73444 447.3478,743.09324 C 449.01908,738.69743 450.38651,718.4117 450.38651,698.01391 C 450.38651,657.14992 448.58346,653.14742 434.37018,662.4603 C 428.47087,666.32569 425.44403,666.67941 419.37591,664.21261 C 410.98388,660.8011 349.26477,664.43917 328.82554,669.55017 C 322.53297,671.12365 308.78841,672.44178 298.28207,672.4793 C 269.846,672.5809 270.19025,671.85851 270.19025,731.42596 C 270.19025,766.35884 271.26136,783.03008 273.76314,787.03607 C 276.89678,792.05385 276.28143,793.61876 268.75768,799.76557 C 264.0396,803.62017 259.02545,806.82025 257.61514,806.87683 C 256.20483,806.9334 248.26401,811.48459 239.96887,816.99059 C 231.67374,822.49658 223.65364,827.00149 222.14643,827.00149 C 220.63922,827.00149 217.80373,828.93216 215.84535,831.29188 C 213.88696,833.65159 208.96703,835.58226 204.91217,835.58226 C 199.17802,835.58226 198.30243,834.81952 200.972,832.14995 z M 81.413216,401.19474 L 81.413216,358.66258 L 93.569313,355.39428 C 114.5487,349.75374 120.13562,349.99214 119.22415,356.48902 C 118.78275,359.6353 118.24978,375.25274 118.03978,391.19447 C 117.70095,416.91506 118.35506,421.06564 123.84778,428.0485 C 134.75697,441.91729 132.66527,443.72689 105.72541,443.72689 L 81.413216,443.72689 L 81.413216,401.19474 z M 628.43758,313.28663 C 619.40877,302.99163 620.12836,298.56949 630.58277,300.10387 C 636.42259,300.96097 639.30058,303.08686 639.59259,306.75914 C 639.82856,309.72687 640.15034,313.65665 640.30765,315.49198 C 640.84381,321.74727 634.88703,320.64055 628.43758,313.28663 z M 193.52089,284.98256 C 193.46259,280.26314 194.05594,277.98619 194.83943,279.92267 C 195.62292,281.85916 195.67061,285.72051 194.94542,288.50345 C 194.22021,291.28639 193.57918,289.70199 193.52089,284.98256 z M 497.50214,236.71182 C 494.39911,234.54661 484.11327,231.88053 474.6447,230.78719 C 464.75845,229.64562 454.40786,226.47784 450.33251,223.3465 C 446.42937,220.34746 444.84476,217.86508 446.81119,217.8301 C 449.50332,217.78221 450.38651,207.57185 450.38651,176.49706 C 450.38651,125.77964 450.09926,126.23823 481.86746,126.23823 C 494.23782,126.23823 507.6064,127.47289 511.57544,128.98192 L 518.7919,131.7256 L 519.62735,186.19025 L 520.46284,240.6549 L 511.80343,240.65173 C 507.04073,240.64999 500.60515,238.87703 497.50214,236.71182 z"
         id="path3325" />
      <path
         style="fill:#060404"
         d="M 227.93925,863.60078 C 229.36699,859.25239 257.82306,844.6081 265.35746,844.34432 C 269.6166,844.19522 270.37802,846.0666 269.64785,854.88901 L 268.76012,865.61498 L 247.74123,866.46104 C 231.53153,867.11352 227.00077,866.45909 227.93925,863.60078 z M 454.73245,830.93884 C 450.56173,826.76809 450.29533,817.56478 452.11557,740.53445 L 454.14212,654.7735 L 440.1082,656.44535 C 432.38957,657.36487 412.5596,659.45792 396.04161,661.09656 C 379.52362,662.73523 356.99908,665.50605 345.98709,667.25392 C 334.9751,669.00183 314.6559,671.22971 300.83332,672.2048 C 283.09708,673.45597 274.90336,675.24022 272.9896,678.26806 C 271.49814,680.62778 270.25814,706.51683 270.23405,735.7993 L 270.19025,789.04014 L 259.46428,796.19534 C 237.46186,810.87295 213.5191,824.14123 209.03561,824.14123 C 204.90421,824.14123 204.40431,817.17444 204.40431,759.59739 C 204.40431,720.57549 203.23352,692.86588 201.44342,689.52106 C 198.96734,684.89445 195.33758,683.98858 179.27535,683.98858 C 168.71141,683.98858 151.05884,685.89692 140.04744,688.22931 C 129.03603,690.56171 111.33867,692.49239 100.71996,692.5197 L 81.413216,692.56935 L 81.413216,645.93162 L 81.413216,599.29385 L 115.02125,595.85221 C 184.16372,588.77167 197.14031,586.64353 200.82899,581.77986 C 203.31458,578.50252 204.40431,564.20692 204.40431,534.87729 C 204.40431,511.67367 205.36965,492.18184 206.54951,491.56211 C 207.72936,490.94235 222.5312,491.01239 239.44248,491.71771 L 270.19025,493.0001 L 270.19025,532.36907 C 270.19025,564.14122 271.03097,572.43579 274.54709,575.35391 C 279.26414,579.26872 319.29676,577.5141 344.36415,572.29381 C 351.54932,570.79749 375.08913,568.45943 396.67478,567.09809 C 425.09774,565.30557 437.9161,563.316 443.15398,559.88401 L 450.38651,555.14508 L 450.38651,486.49404 L 450.38651,417.84299 L 443.56211,415.24836 C 437.7944,413.05546 374.73738,415.60532 361.62229,418.56177 C 359.16587,419.11549 357.03821,414.98539 355.55703,406.78832 C 350.60355,379.3752 322.68537,351.53988 293.78738,345.20207 C 288.67467,344.08076 284.49154,342.18509 284.49154,340.98945 C 284.49154,335.37731 303.66342,331.5012 343.05267,329.14969 C 366.69058,327.73852 389.24849,325.8987 393.18135,325.06121 C 397.1142,324.22371 409.71624,322.37822 421.18588,320.96012 C 432.65551,319.54202 443.91778,316.82314 446.21314,314.91816 C 448.99234,312.61162 450.38651,305.91668 450.38651,294.87718 C 450.38651,275.61186 452.26184,269.25114 457.9418,269.25114 C 464.42526,269.25114 499.82507,306.82772 506.56004,320.85896 C 520.62024,350.15126 527.4104,389.71092 521.70281,409.08136 C 519.62938,416.11816 519.40217,440.85797 520.99058,486.63076 L 523.32309,553.84683 L 580.52826,555.27696 L 637.73342,556.70709 L 638.52497,597.1304 C 639.23974,633.63219 638.82352,637.74842 634.23458,639.56073 C 631.43951,640.66456 606.30353,642.29588 578.37683,643.18585 C 538.87615,644.44465 526.83274,645.72968 524.14121,648.97278 C 521.65862,651.96413 520.34911,678.157 519.50505,741.7063 L 518.32871,830.27099 L 511.34385,832.92663 C 499.06556,837.59483 460.01734,836.22373 454.73245,830.93884 z M 81.413216,401.27577 L 81.413216,358.82465 L 92.471031,355.51164 C 111.04145,349.94781 113.80286,350.80832 111.66972,361.49447 C 104.98457,394.98423 105.82777,402.72103 120.08637,438.72144 C 121.86215,443.20498 119.94927,443.72689 101.74104,443.72689 L 81.413216,443.72689 L 81.413216,401.27577 z M 200.15046,343.67698 C 199.1983,342.13633 199.76589,338.35961 201.41179,335.28424 C 203.31013,331.73714 204.40431,297.31545 204.40431,241.14261 C 204.40431,163.03513 204.93786,152.38785 208.92863,150.85644 C 215.5285,148.32384 262.42132,148.81522 266.58667,151.46063 C 269.26326,153.16053 270.31616,176.31393 270.87706,245.80664 L 271.62038,337.89991 L 262.46409,337.89863 C 257.42814,337.89791 245.89545,339.82801 236.8359,342.18773 C 217.91351,347.11638 202.65886,347.73565 200.15046,343.67698 z M 632.48962,307.38792 C 629.19849,304.09681 630.40667,300.71398 634.87316,300.71398 C 637.23287,300.71398 639.16355,302.64466 639.16355,305.00437 C 639.16355,309.47087 635.78072,310.67903 632.48962,307.38792 z M 481.75937,223.91345 C 468.33818,219.74605 455.7888,215.29507 453.87185,214.02237 C 451.42075,212.39503 450.38651,200.36089 450.38651,173.46799 C 450.38651,126.17534 450.34458,126.23823 481.86746,126.23823 C 494.23782,126.23823 507.66061,127.49349 511.69586,129.0277 L 519.03271,131.81716 L 519.03271,181.94247 L 519.03271,232.06779 L 512.59713,231.77916 C 509.05756,231.62042 495.18056,228.08085 481.75937,223.91345 z"
         id="path3323" />
    </g>
  </g>
</svg>
